<?xml version="1.0" encoding="UTF-8"?>
<!DOCTYPE svg PUBLIC "-//W3C//DTD SVG 1.1//EN" "http://www.w3.org/Graphics/SVG/1.1/DTD/svg11.dtd">
<svg xmlns="http://www.w3.org/2000/svg" xmlns:xlink="http://www.w3.org/1999/xlink" version="1.1" width="933px" height="873px" viewBox="-0.5 -0.5 933 873"><defs><clipPath id="mx-clip-350-710-30-30-0"><rect x="350" y="710" width="30" height="30"/></clipPath><clipPath id="mx-clip-386-710-214-30-0"><rect x="386" y="710" width="214" height="30"/></clipPath><clipPath id="mx-clip-350-740-30-30-0"><rect x="350" y="740" width="30" height="30"/></clipPath><clipPath id="mx-clip-386-740-214-30-0"><rect x="386" y="740" width="214" height="30"/></clipPath><clipPath id="mx-clip-386-770-214-30-0"><rect x="386" y="770" width="214" height="30"/></clipPath><clipPath id="mx-clip-386-800-214-30-0"><rect x="386" y="800" width="214" height="30"/></clipPath><clipPath id="mx-clip-386-830-214-30-0"><rect x="386" y="830" width="214" height="30"/></clipPath><clipPath id="mx-clip-680-410-30-30-0"><rect x="680" y="410" width="30" height="30"/></clipPath><clipPath id="mx-clip-716-410-214-30-0"><rect x="716" y="410" width="214" height="30"/></clipPath><clipPath id="mx-clip-680-440-30-30-0"><rect x="680" y="440" width="30" height="30"/></clipPath><clipPath id="mx-clip-716-440-214-30-0"><rect x="716" y="440" width="214" height="30"/></clipPath><clipPath id="mx-clip-716-470-214-30-0"><rect x="716" y="470" width="214" height="30"/></clipPath><clipPath id="mx-clip-716-500-214-30-0"><rect x="716" y="500" width="214" height="30"/></clipPath><clipPath id="mx-clip-350-370-30-30-0"><rect x="350" y="370" width="30" height="30"/></clipPath><clipPath id="mx-clip-386-370-214-30-0"><rect x="386" y="370" width="214" height="30"/></clipPath><clipPath id="mx-clip-386-400-214-30-0"><rect x="386" y="400" width="214" height="30"/></clipPath><clipPath id="mx-clip-386-430-214-30-0"><rect x="386" y="430" width="214" height="30"/></clipPath><clipPath id="mx-clip-386-460-214-30-0"><rect x="386" y="460" width="214" height="30"/></clipPath><clipPath id="mx-clip-386-490-214-30-0"><rect x="386" y="490" width="214" height="30"/></clipPath><clipPath id="mx-clip-386-520-214-30-0"><rect x="386" y="520" width="214" height="30"/></clipPath><clipPath id="mx-clip-680-100-30-30-0"><rect x="680" y="100" width="30" height="30"/></clipPath><clipPath id="mx-clip-716-100-214-30-0"><rect x="716" y="100" width="214" height="30"/></clipPath><clipPath id="mx-clip-680-130-30-30-0"><rect x="680" y="130" width="30" height="30"/></clipPath><clipPath id="mx-clip-716-130-214-30-0"><rect x="716" y="130" width="214" height="30"/></clipPath><clipPath id="mx-clip-716-160-214-30-0"><rect x="716" y="160" width="214" height="30"/></clipPath><clipPath id="mx-clip-716-190-214-30-0"><rect x="716" y="190" width="214" height="30"/></clipPath><clipPath id="mx-clip-716-220-214-30-0"><rect x="716" y="220" width="214" height="30"/></clipPath><clipPath id="mx-clip-716-250-214-30-0"><rect x="716" y="250" width="214" height="30"/></clipPath><clipPath id="mx-clip-2-30-30-30-0"><rect x="2" y="30" width="30" height="30"/></clipPath><clipPath id="mx-clip-38-30-214-30-0"><rect x="38" y="30" width="214" height="30"/></clipPath><clipPath id="mx-clip-38-60-214-30-0"><rect x="38" y="60" width="214" height="30"/></clipPath><clipPath id="mx-clip-38-90-214-30-0"><rect x="38" y="90" width="214" height="30"/></clipPath><clipPath id="mx-clip-38-120-214-30-0"><rect x="38" y="120" width="214" height="30"/></clipPath><clipPath id="mx-clip-38-150-214-30-0"><rect x="38" y="150" width="214" height="30"/></clipPath><clipPath id="mx-clip-38-180-214-30-0"><rect x="38" y="180" width="214" height="30"/></clipPath><clipPath id="mx-clip-350-60-40-30-0"><rect x="350" y="60" width="40" height="30"/></clipPath><clipPath id="mx-clip-396-60-204-30-0"><rect x="396" y="60" width="204" height="30"/></clipPath><clipPath id="mx-clip-0-710-30-30-0"><rect x="0" y="710" width="30" height="30"/></clipPath><clipPath id="mx-clip-36-710-214-30-0"><rect x="36" y="710" width="214" height="30"/></clipPath><clipPath id="mx-clip-0-740-30-30-0"><rect x="0" y="740" width="30" height="30"/></clipPath><clipPath id="mx-clip-36-740-214-30-0"><rect x="36" y="740" width="214" height="30"/></clipPath><clipPath id="mx-clip-36-770-214-30-0"><rect x="36" y="770" width="214" height="30"/></clipPath><clipPath id="mx-clip-36-800-214-30-0"><rect x="36" y="800" width="214" height="30"/></clipPath><clipPath id="mx-clip-36-830-214-30-0"><rect x="36" y="830" width="214" height="30"/></clipPath><clipPath id="mx-clip-0-420-30-30-0"><rect x="0" y="420" width="30" height="30"/></clipPath><clipPath id="mx-clip-36-420-214-30-0"><rect x="36" y="420" width="214" height="30"/></clipPath><clipPath id="mx-clip-36-450-214-30-0"><rect x="36" y="450" width="214" height="30"/></clipPath><clipPath id="mx-clip-36-480-214-30-0"><rect x="36" y="480" width="214" height="30"/></clipPath><clipPath id="mx-clip-36-510-214-30-0"><rect x="36" y="510" width="214" height="30"/></clipPath><clipPath id="mx-clip-0-540-30-30-0"><rect x="0" y="540" width="30" height="30"/></clipPath><clipPath id="mx-clip-36-540-214-30-0"><rect x="36" y="540" width="214" height="30"/></clipPath><clipPath id="mx-clip-36-570-214-30-0"><rect x="36" y="570" width="214" height="30"/></clipPath><clipPath id="mx-clip-36-600-214-30-0"><rect x="36" y="600" width="214" height="30"/></clipPath></defs><g><path d="M 600.01 385 L 620.01 385 Q 630.01 385 630.01 395 L 630.01 745.01 Q 630.01 755.01 620.01 755.01 L 600.01 755.01" fill="none" stroke="rgb(0, 0, 0)" stroke-miterlimit="10" pointer-events="stroke"/><path d="M 604.01 381 L 604.01 389" fill="none" stroke="rgb(0, 0, 0)" stroke-miterlimit="10" pointer-events="all"/><ellipse cx="612.01" cy="755.01" rx="3.00003" ry="3.00003" fill="#ffffff" stroke="rgb(0, 0, 0)" pointer-events="all"/><path d="M 600.01 759.01 L 608.01 755.01 L 600.01 751.01" fill="none" stroke="rgb(0, 0, 0)" stroke-miterlimit="10" pointer-events="all"/><path d="M 350 710.01 L 350 680.01 L 600.01 680.01 L 600.01 710.01" fill="rgb(255, 255, 255)" stroke="rgb(0, 0, 0)" stroke-miterlimit="10" pointer-events="all"/><path d="M 350 710.01 L 350 870.01 L 600.01 870.01 L 600.01 710.01" fill="none" stroke="rgb(0, 0, 0)" stroke-miterlimit="10" pointer-events="none"/><path d="M 350 710.01 L 600.01 710.01" fill="none" stroke="rgb(0, 0, 0)" stroke-miterlimit="10" pointer-events="none"/><path d="M 380 710.01 L 380 740.01 L 380 770.01 L 380 800.01 L 380 830.01 L 380 860.01" fill="none" stroke="rgb(0, 0, 0)" stroke-miterlimit="10" pointer-events="none"/><g fill="rgb(0, 0, 0)" font-family="Helvetica" font-weight="bold" pointer-events="none" text-anchor="middle" font-size="12.00012px"><text x="474.5" y="699.51">Comment</text></g><path d="M 350 710.01 M 600.01 710.01 M 600.01 740.01 L 350 740.01" fill="none" stroke="rgb(0, 0, 0)" stroke-linecap="square" stroke-miterlimit="10" pointer-events="none"/><path d="M 350 710.01 M 380 710.01 M 380 740.01 M 350 740.01" fill="none" stroke="rgb(0, 0, 0)" stroke-linecap="square" stroke-miterlimit="10" pointer-events="none"/><g fill="rgb(0, 0, 0)" font-family="Helvetica" font-weight="bold" pointer-events="none" clip-path="url(#mx-clip-350-710-30-30-0)" text-anchor="middle" font-size="12.00012px"><text x="364.5" y="729.51">PK</text></g><path d="M 380 710.01 M 600.01 710.01 M 600.01 740.01 M 380 740.01" fill="none" stroke="rgb(0, 0, 0)" stroke-linecap="square" stroke-miterlimit="10" pointer-events="none"/><g fill="rgb(0, 0, 0)" font-family="Helvetica" font-weight="bold" text-decoration="underline" pointer-events="none" clip-path="url(#mx-clip-386-710-214-30-0)" font-size="12.00012px"><text x="387.5" y="729.51">ID INTEGER NOT NULL</text></g><path d="M 350 740.01 M 600.01 740.01 M 600.01 770.01 M 350 770.01" fill="none" stroke="rgb(0, 0, 0)" stroke-linecap="square" stroke-miterlimit="10" pointer-events="none"/><path d="M 350 740.01 M 380 740.01 M 380 770.01 M 350 770.01" fill="none" stroke="rgb(0, 0, 0)" stroke-linecap="square" stroke-miterlimit="10" pointer-events="none"/><g fill="rgb(0, 0, 0)" font-family="Helvetica" pointer-events="none" clip-path="url(#mx-clip-350-740-30-30-0)" text-anchor="middle" font-size="12.00012px"><text x="364.5" y="759.51">FK</text></g><path d="M 380 740.01 M 600.01 740.01 M 600.01 770.01 M 380 770.01" fill="none" stroke="rgb(0, 0, 0)" stroke-linecap="square" stroke-miterlimit="10" pointer-events="none"/><g fill="rgb(0, 0, 0)" font-family="Helvetica" pointer-events="none" clip-path="url(#mx-clip-386-740-214-30-0)" font-size="12.00012px"><text x="387.5" y="759.51">Submitter INTEGER</text></g><path d="M 350 770.01 M 600.01 770.01 M 600.01 800.01 M 350 800.01" fill="none" stroke="rgb(0, 0, 0)" stroke-linecap="square" stroke-miterlimit="10" pointer-events="none"/><path d="M 350 770.01 M 380 770.01 M 380 800.01 M 350 800.01" fill="none" stroke="rgb(0, 0, 0)" stroke-linecap="square" stroke-miterlimit="10" pointer-events="none"/><path d="M 380 770.01 M 600.01 770.01 M 600.01 800.01 M 380 800.01" fill="none" stroke="rgb(0, 0, 0)" stroke-linecap="square" stroke-miterlimit="10" pointer-events="none"/><g fill="rgb(0, 0, 0)" font-family="Helvetica" pointer-events="none" clip-path="url(#mx-clip-386-770-214-30-0)" font-size="12.00012px"><text x="387.5" y="789.51">Comment VARCHAR</text></g><path d="M 350 800.01 M 380 800.01 M 380 830.01 M 350 830.01" fill="none" stroke="rgb(0, 0, 0)" stroke-linecap="square" stroke-miterlimit="10" pointer-events="none"/><path d="M 380 800.01 M 600.01 800.01 M 600.01 830.01 M 380 830.01" fill="none" stroke="rgb(0, 0, 0)" stroke-linecap="square" stroke-miterlimit="10" pointer-events="none"/><g fill="rgb(0, 0, 0)" font-family="Helvetica" pointer-events="none" clip-path="url(#mx-clip-386-800-214-30-0)" font-size="12.00012px"><text x="387.5" y="819.51">DatePosted DATE</text></g><path d="M 350 830.01 M 380 830.01 M 380 860.01 M 350 860.01" fill="none" stroke="rgb(0, 0, 0)" stroke-linecap="square" stroke-miterlimit="10" pointer-events="none"/><path d="M 380 830.01 M 600.01 830.01 M 600.01 860.01 M 380 860.01" fill="none" stroke="rgb(0, 0, 0)" stroke-linecap="square" stroke-miterlimit="10" pointer-events="none"/><g fill="rgb(0, 0, 0)" font-family="Helvetica" pointer-events="none" clip-path="url(#mx-clip-386-830-214-30-0)" font-size="12.00012px"><text x="387.5" y="849.51">Approved BOOLEAN</text></g><path d="M 680.01 410 L 680.01 380 L 930.01 380 L 930.01 410" fill="rgb(255, 255, 255)" stroke="rgb(0, 0, 0)" stroke-miterlimit="10" pointer-events="none"/><path d="M 680.01 410 L 680.01 540.01 L 930.01 540.01 L 930.01 410" fill="none" stroke="rgb(0, 0, 0)" stroke-miterlimit="10" pointer-events="none"/><path d="M 680.01 410 L 930.01 410" fill="none" stroke="rgb(0, 0, 0)" stroke-miterlimit="10" pointer-events="none"/><path d="M 710.01 410 L 710.01 440 L 710.01 470 L 710.01 500.01 L 710.01 530.01" fill="none" stroke="rgb(0, 0, 0)" stroke-miterlimit="10" pointer-events="none"/><g fill="rgb(0, 0, 0)" font-family="Helvetica" font-weight="bold" pointer-events="none" text-anchor="middle" font-size="12.00012px"><text x="804.51" y="399.5">Donation</text></g><path d="M 680.01 410 M 930.01 410 M 930.01 440 L 680.01 440" fill="none" stroke="rgb(0, 0, 0)" stroke-linecap="square" stroke-miterlimit="10" pointer-events="none"/><path d="M 680.01 410 M 710.01 410 M 710.01 440 M 680.01 440" fill="none" stroke="rgb(0, 0, 0)" stroke-linecap="square" stroke-miterlimit="10" pointer-events="none"/><g fill="rgb(0, 0, 0)" font-family="Helvetica" font-weight="bold" pointer-events="none" clip-path="url(#mx-clip-680-410-30-30-0)" text-anchor="middle" font-size="12.00012px"><text x="694.51" y="429.5">PK</text></g><path d="M 710.01 410 M 930.01 410 M 930.01 440 M 710.01 440" fill="none" stroke="rgb(0, 0, 0)" stroke-linecap="square" stroke-miterlimit="10" pointer-events="none"/><g fill="rgb(0, 0, 0)" font-family="Helvetica" font-weight="bold" text-decoration="underline" pointer-events="none" clip-path="url(#mx-clip-716-410-214-30-0)" font-size="12.00012px"><text x="717.51" y="429.5">ID INTEGER NOT NULL</text></g><path d="M 680.01 440 M 930.01 440 M 930.01 470 M 680.01 470" fill="none" stroke="rgb(0, 0, 0)" stroke-linecap="square" stroke-miterlimit="10" pointer-events="none"/><path d="M 680.01 440 M 710.01 440 M 710.01 470 M 680.01 470" fill="none" stroke="rgb(0, 0, 0)" stroke-linecap="square" stroke-miterlimit="10" pointer-events="none"/><g fill="rgb(0, 0, 0)" font-family="Helvetica" pointer-events="none" clip-path="url(#mx-clip-680-440-30-30-0)" text-anchor="middle" font-size="12.00012px"><text x="694.51" y="459.5">FK</text></g><path d="M 710.01 440 M 930.01 440 M 930.01 470 M 710.01 470" fill="none" stroke="rgb(0, 0, 0)" stroke-linecap="square" stroke-miterlimit="10" pointer-events="none"/><g fill="rgb(0, 0, 0)" font-family="Helvetica" pointer-events="none" clip-path="url(#mx-clip-716-440-214-30-0)" font-size="12.00012px"><text x="717.51" y="459.5">FIXME</text></g><path d="M 680.01 470 M 930.01 470 M 930.01 500.01 M 680.01 500.01" fill="none" stroke="rgb(0, 0, 0)" stroke-linecap="square" stroke-miterlimit="10" pointer-events="none"/><path d="M 680.01 470 M 710.01 470 M 710.01 500.01 M 680.01 500.01" fill="none" stroke="rgb(0, 0, 0)" stroke-linecap="square" stroke-miterlimit="10" pointer-events="none"/><path d="M 710.01 470 M 930.01 470 M 930.01 500.01 M 710.01 500.01" fill="none" stroke="rgb(0, 0, 0)" stroke-linecap="square" stroke-miterlimit="10" pointer-events="none"/><g fill="rgb(0, 0, 0)" font-family="Helvetica" pointer-events="none" clip-path="url(#mx-clip-716-470-214-30-0)" font-size="12.00012px"><text x="717.51" y="489.5">FIXME</text></g><path d="M 680.01 500.01 M 710.01 500.01 M 710.01 530.01 M 680.01 530.01" fill="none" stroke="rgb(0, 0, 0)" stroke-linecap="square" stroke-miterlimit="10" pointer-events="none"/><path d="M 710.01 500.01 M 930.01 500.01 M 930.01 530.01 M 710.01 530.01" fill="none" stroke="rgb(0, 0, 0)" stroke-linecap="square" stroke-miterlimit="10" pointer-events="none"/><g fill="rgb(0, 0, 0)" font-family="Helvetica" pointer-events="none" clip-path="url(#mx-clip-716-500-214-30-0)" font-size="12.00012px"><text x="717.51" y="519.51">FIXME</text></g><path d="M 350 370 L 350 340 L 600.01 340 L 600.01 370" fill="rgb(255, 255, 255)" stroke="rgb(0, 0, 0)" stroke-miterlimit="10" pointer-events="none"/><path d="M 350 370 L 350 560.01 L 600.01 560.01 L 600.01 370" fill="none" stroke="rgb(0, 0, 0)" stroke-miterlimit="10" pointer-events="none"/><path d="M 350 370 L 600.01 370" fill="none" stroke="rgb(0, 0, 0)" stroke-miterlimit="10" pointer-events="none"/><path d="M 380 370 L 380 400 L 380 430 L 380 460 L 380 490 L 380 520.01 L 380 550.01" fill="none" stroke="rgb(0, 0, 0)" stroke-miterlimit="10" pointer-events="none"/><g fill="rgb(0, 0, 0)" font-family="Helvetica" font-weight="bold" pointer-events="none" text-anchor="middle" font-size="12.00012px"><text x="474.5" y="359.5">Person</text></g><path d="M 350 370 M 600.01 370 M 600.01 400 L 350 400" fill="none" stroke="rgb(0, 0, 0)" stroke-linecap="square" stroke-miterlimit="10" pointer-events="none"/><path d="M 350 370 M 380 370 M 380 400 M 350 400" fill="none" stroke="rgb(0, 0, 0)" stroke-linecap="square" stroke-miterlimit="10" pointer-events="none"/><g fill="rgb(0, 0, 0)" font-family="Helvetica" font-weight="bold" pointer-events="none" clip-path="url(#mx-clip-350-370-30-30-0)" text-anchor="middle" font-size="12.00012px"><text x="364.5" y="389.5">PK</text></g><path d="M 380 370 M 600.01 370 M 600.01 400 M 380 400" fill="none" stroke="rgb(0, 0, 0)" stroke-linecap="square" stroke-miterlimit="10" pointer-events="none"/><g fill="rgb(0, 0, 0)" font-family="Helvetica" font-weight="bold" text-decoration="underline" pointer-events="none" clip-path="url(#mx-clip-386-370-214-30-0)" font-size="12.00012px"><text x="387.5" y="389.5">ID INTEGER NOT NULL </text></g><path d="M 350 400 M 600.01 400 M 600.01 430 M 350 430" fill="none" stroke="rgb(0, 0, 0)" stroke-linecap="square" stroke-miterlimit="10" pointer-events="none"/><path d="M 350 400 M 380 400 M 380 430 M 350 430" fill="none" stroke="rgb(0, 0, 0)" stroke-linecap="square" stroke-miterlimit="10" pointer-events="none"/><path d="M 380 400 M 600.01 400 M 600.01 430 M 380 430" fill="none" stroke="rgb(0, 0, 0)" stroke-linecap="square" stroke-miterlimit="10" pointer-events="none"/><g fill="rgb(0, 0, 0)" font-family="Helvetica" pointer-events="none" clip-path="url(#mx-clip-386-400-214-30-0)" font-size="12.00012px"><text x="387.5" y="419.5">Name VARCHAR</text></g><path d="M 350 430 M 380 430 M 380 460 M 350 460" fill="none" stroke="rgb(0, 0, 0)" stroke-linecap="square" stroke-miterlimit="10" pointer-events="none"/><path d="M 380 430 M 600.01 430 M 600.01 460 M 380 460" fill="none" stroke="rgb(0, 0, 0)" stroke-linecap="square" stroke-miterlimit="10" pointer-events="none"/><g fill="rgb(0, 0, 0)" font-family="Helvetica" pointer-events="none" clip-path="url(#mx-clip-386-430-214-30-0)" font-size="12.00012px"><text x="387.5" y="449.5">Email VARCHAR</text></g><path d="M 350 460 M 380 460 M 380 490 M 350 490" fill="none" stroke="rgb(0, 0, 0)" stroke-linecap="square" stroke-miterlimit="10" pointer-events="none"/><path d="M 380 460 M 600.01 460 M 600.01 490 M 380 490" fill="none" stroke="rgb(0, 0, 0)" stroke-linecap="square" stroke-miterlimit="10" pointer-events="none"/><g fill="rgb(0, 0, 0)" font-family="Helvetica" pointer-events="none" clip-path="url(#mx-clip-386-460-214-30-0)" font-size="12.00012px"><text x="387.5" y="479.5">Phone VARCHAR</text></g><path d="M 350 490 M 380 490 M 380 520.01 M 350 520.01" fill="none" stroke="rgb(0, 0, 0)" stroke-linecap="square" stroke-miterlimit="10" pointer-events="none"/><path d="M 380 490 M 600.01 490 M 600.01 520.01 M 380 520.01" fill="none" stroke="rgb(0, 0, 0)" stroke-linecap="square" stroke-miterlimit="10" pointer-events="none"/><g fill="rgb(0, 0, 0)" font-family="Helvetica" pointer-events="none" clip-path="url(#mx-clip-386-490-214-30-0)" font-size="12.00012px"><text x="387.5" y="509.51">isMember BOOLEAN NOT NULL</text></g><path d="M 350 520.01 M 380 520.01 M 380 550.01 M 350 550.01" fill="none" stroke="rgb(0, 0, 0)" stroke-linecap="square" stroke-miterlimit="10" pointer-events="none"/><path d="M 380 520.01 M 600.01 520.01 M 600.01 550.01 M 380 550.01" fill="none" stroke="rgb(0, 0, 0)" stroke-linecap="square" stroke-miterlimit="10" pointer-events="none"/><g fill="rgb(0, 0, 0)" font-family="Helvetica" pointer-events="none" clip-path="url(#mx-clip-386-520-214-30-0)" font-size="12.00012px"><text x="387.5" y="539.51">dateAdded DATE</text></g><path d="M 680.01 100 L 680.01 70 L 930.01 70 L 930.01 100" fill="rgb(255, 255, 255)" stroke="rgb(0, 0, 0)" stroke-miterlimit="10" pointer-events="none"/><path d="M 680.01 100 L 680.01 290 L 930.01 290 L 930.01 100" fill="none" stroke="rgb(0, 0, 0)" stroke-miterlimit="10" pointer-events="none"/><path d="M 680.01 100 L 930.01 100" fill="none" stroke="rgb(0, 0, 0)" stroke-miterlimit="10" pointer-events="none"/><path d="M 710.01 100 L 710.01 130 L 710.01 160 L 710.01 190 L 710.01 220 L 710.01 250 L 710.01 280" fill="none" stroke="rgb(0, 0, 0)" stroke-miterlimit="10" pointer-events="none"/><g fill="rgb(0, 0, 0)" font-family="Helvetica" font-weight="bold" pointer-events="none" text-anchor="middle" font-size="12.00012px"><text x="804.51" y="89.5">Sale</text></g><path d="M 680.01 100 M 930.01 100 M 930.01 130 L 680.01 130" fill="none" stroke="rgb(0, 0, 0)" stroke-linecap="square" stroke-miterlimit="10" pointer-events="none"/><path d="M 680.01 100 M 710.01 100 M 710.01 130 M 680.01 130" fill="none" stroke="rgb(0, 0, 0)" stroke-linecap="square" stroke-miterlimit="10" pointer-events="none"/><g fill="rgb(0, 0, 0)" font-family="Helvetica" font-weight="bold" pointer-events="none" clip-path="url(#mx-clip-680-100-30-30-0)" text-anchor="middle" font-size="12.00012px"><text x="694.51" y="119.5">PK</text></g><path d="M 710.01 100 M 930.01 100 M 930.01 130 M 710.01 130" fill="none" stroke="rgb(0, 0, 0)" stroke-linecap="square" stroke-miterlimit="10" pointer-events="none"/><g fill="rgb(0, 0, 0)" font-family="Helvetica" font-weight="bold" text-decoration="underline" pointer-events="none" clip-path="url(#mx-clip-716-100-214-30-0)" font-size="12.00012px"><text x="717.51" y="119.5">ID INTEGER NOT NULL</text></g><path d="M 680.01 130 M 930.01 130 M 930.01 160 M 680.01 160" fill="none" stroke="rgb(0, 0, 0)" stroke-linecap="square" stroke-miterlimit="10" pointer-events="none"/><path d="M 680.01 130 M 710.01 130 M 710.01 160 M 680.01 160" fill="none" stroke="rgb(0, 0, 0)" stroke-linecap="square" stroke-miterlimit="10" pointer-events="none"/><g fill="rgb(0, 0, 0)" font-family="Helvetica" pointer-events="none" clip-path="url(#mx-clip-680-130-30-30-0)" text-anchor="middle" font-size="12.00012px"><text x="694.51" y="149.5">FK</text></g><path d="M 710.01 130 M 930.01 130 M 930.01 160 M 710.01 160" fill="none" stroke="rgb(0, 0, 0)" stroke-linecap="square" stroke-miterlimit="10" pointer-events="none"/><g fill="rgb(0, 0, 0)" font-family="Helvetica" pointer-events="none" clip-path="url(#mx-clip-716-130-214-30-0)" font-size="12.00012px"><text x="717.51" y="149.5">Customer INTEGER</text></g><path d="M 680.01 160 M 930.01 160 M 930.01 190 M 680.01 190" fill="none" stroke="rgb(0, 0, 0)" stroke-linecap="square" stroke-miterlimit="10" pointer-events="none"/><path d="M 680.01 160 M 710.01 160 M 710.01 190 M 680.01 190" fill="none" stroke="rgb(0, 0, 0)" stroke-linecap="square" stroke-miterlimit="10" pointer-events="none"/><path d="M 710.01 160 M 930.01 160 M 930.01 190 M 710.01 190" fill="none" stroke="rgb(0, 0, 0)" stroke-linecap="square" stroke-miterlimit="10" pointer-events="none"/><g fill="rgb(0, 0, 0)" font-family="Helvetica" pointer-events="none" clip-path="url(#mx-clip-716-160-214-30-0)" font-size="12.00012px"><text x="717.51" y="179.5">BillingAddress VARCHAR</text></g><path d="M 680.01 190 M 710.01 190 M 710.01 220 M 680.01 220" fill="none" stroke="rgb(0, 0, 0)" stroke-linecap="square" stroke-miterlimit="10" pointer-events="none"/><path d="M 710.01 190 M 930.01 190 M 930.01 220 M 710.01 220" fill="none" stroke="rgb(0, 0, 0)" stroke-linecap="square" stroke-miterlimit="10" pointer-events="none"/><g fill="rgb(0, 0, 0)" font-family="Helvetica" pointer-events="none" clip-path="url(#mx-clip-716-190-214-30-0)" font-size="12.00012px"><text x="717.51" y="209.5">ShippingAddress VARCHAR</text></g><path d="M 680.01 220 M 710.01 220 M 710.01 250 M 680.01 250" fill="none" stroke="rgb(0, 0, 0)" stroke-linecap="square" stroke-miterlimit="10" pointer-events="none"/><path d="M 710.01 220 M 930.01 220 M 930.01 250 M 710.01 250" fill="none" stroke="rgb(0, 0, 0)" stroke-linecap="square" stroke-miterlimit="10" pointer-events="none"/><g fill="rgb(0, 0, 0)" font-family="Helvetica" pointer-events="none" clip-path="url(#mx-clip-716-220-214-30-0)" font-size="12.00012px"><text x="717.51" y="239.5">DateOrdered DATE</text></g><path d="M 680.01 250 M 710.01 250 M 710.01 280 M 680.01 280" fill="none" stroke="rgb(0, 0, 0)" stroke-linecap="square" stroke-miterlimit="10" pointer-events="none"/><path d="M 710.01 250 M 930.01 250 M 930.01 280 M 710.01 280" fill="none" stroke="rgb(0, 0, 0)" stroke-linecap="square" stroke-miterlimit="10" pointer-events="none"/><g fill="rgb(0, 0, 0)" font-family="Helvetica" pointer-events="none" clip-path="url(#mx-clip-716-250-214-30-0)" font-size="12.00012px"><text x="717.51" y="269.5">DateShipped DATE</text></g><path d="M 2 30 L 2 0 L 252 0 L 252 30" fill="rgb(255, 255, 255)" stroke="rgb(0, 0, 0)" stroke-miterlimit="10" pointer-events="none"/><path d="M 2 30 L 2 220 L 252 220 L 252 30" fill="none" stroke="rgb(0, 0, 0)" stroke-miterlimit="10" pointer-events="none"/><path d="M 2 30 L 252 30" fill="none" stroke="rgb(0, 0, 0)" stroke-miterlimit="10" pointer-events="none"/><path d="M 32 30 L 32 60 L 32 90 L 32 120 L 32 150 L 32 180 L 32 210" fill="none" stroke="rgb(0, 0, 0)" stroke-miterlimit="10" pointer-events="none"/><g fill="rgb(0, 0, 0)" font-family="Helvetica" font-weight="bold" pointer-events="none" text-anchor="middle" font-size="12.00012px"><text x="126.5" y="19.5">Merchandise</text></g><path d="M 2 30 M 252 30 M 252 60 L 2 60" fill="none" stroke="rgb(0, 0, 0)" stroke-linecap="square" stroke-miterlimit="10" pointer-events="none"/><path d="M 2 30 M 32 30 M 32 60 M 2 60" fill="none" stroke="rgb(0, 0, 0)" stroke-linecap="square" stroke-miterlimit="10" pointer-events="none"/><g fill="rgb(0, 0, 0)" font-family="Helvetica" font-weight="bold" pointer-events="none" clip-path="url(#mx-clip-2-30-30-30-0)" text-anchor="middle" font-size="12.00012px"><text x="16.5" y="49.5">PK</text></g><path d="M 32 30 M 252 30 M 252 60 M 32 60" fill="none" stroke="rgb(0, 0, 0)" stroke-linecap="square" stroke-miterlimit="10" pointer-events="none"/><g fill="rgb(0, 0, 0)" font-family="Helvetica" font-weight="bold" text-decoration="underline" pointer-events="none" clip-path="url(#mx-clip-38-30-214-30-0)" font-size="12.00012px"><text x="39.5" y="49.5">ID INTEGER NOT NULL</text></g><path d="M 2 60 M 252 60 M 252 90 M 2 90" fill="none" stroke="rgb(0, 0, 0)" stroke-linecap="square" stroke-miterlimit="10" pointer-events="none"/><path d="M 2 60 M 32 60 M 32 90 M 2 90" fill="none" stroke="rgb(0, 0, 0)" stroke-linecap="square" stroke-miterlimit="10" pointer-events="none"/><path d="M 32 60 M 252 60 M 252 90 M 32 90" fill="none" stroke="rgb(0, 0, 0)" stroke-linecap="square" stroke-miterlimit="10" pointer-events="none"/><g fill="rgb(0, 0, 0)" font-family="Helvetica" pointer-events="none" clip-path="url(#mx-clip-38-60-214-30-0)" font-size="12.00012px"><text x="39.5" y="79.5">Item VARCHAR</text></g><path d="M 2 90 M 32 90 M 32 120 M 2 120" fill="none" stroke="rgb(0, 0, 0)" stroke-linecap="square" stroke-miterlimit="10" pointer-events="none"/><path d="M 32 90 M 252 90 M 252 120 M 32 120" fill="none" stroke="rgb(0, 0, 0)" stroke-linecap="square" stroke-miterlimit="10" pointer-events="none"/><g fill="rgb(0, 0, 0)" font-family="Helvetica" pointer-events="none" clip-path="url(#mx-clip-38-90-214-30-0)" font-size="12.00012px"><text x="39.5" y="109.5">Description VARCHAR</text></g><path d="M 2 120 M 32 120 M 32 150 M 2 150" fill="none" stroke="rgb(0, 0, 0)" stroke-linecap="square" stroke-miterlimit="10" pointer-events="none"/><path d="M 32 120 M 252 120 M 252 150 M 32 150" fill="none" stroke="rgb(0, 0, 0)" stroke-linecap="square" stroke-miterlimit="10" pointer-events="none"/><g fill="rgb(0, 0, 0)" font-family="Helvetica" pointer-events="none" clip-path="url(#mx-clip-38-120-214-30-0)" font-size="12.00012px"><text x="39.5" y="139.5">SaleUnit VARCHAR</text></g><path d="M 2 150 M 32 150 M 32 180 M 2 180" fill="none" stroke="rgb(0, 0, 0)" stroke-linecap="square" stroke-miterlimit="10" pointer-events="none"/><path d="M 32 150 M 252 150 M 252 180 M 32 180" fill="none" stroke="rgb(0, 0, 0)" stroke-linecap="square" stroke-miterlimit="10" pointer-events="none"/><g fill="rgb(0, 0, 0)" font-family="Helvetica" pointer-events="none" clip-path="url(#mx-clip-38-150-214-30-0)" font-size="12.00012px"><text x="39.5" y="169.5">FIXME.</text></g><path d="M 2 180 M 32 180 M 32 210 M 2 210" fill="none" stroke="rgb(0, 0, 0)" stroke-linecap="square" stroke-miterlimit="10" pointer-events="none"/><path d="M 32 180 M 252 180 M 252 210 M 32 210" fill="none" stroke="rgb(0, 0, 0)" stroke-linecap="square" stroke-miterlimit="10" pointer-events="none"/><g fill="rgb(0, 0, 0)" font-family="Helvetica" pointer-events="none" clip-path="url(#mx-clip-38-180-214-30-0)" font-size="12.00012px"><text x="39.5" y="199.5">...</text></g><path d="M 350 60 L 350 30 L 600.01 30 L 600.01 60" fill="rgb(255, 255, 255)" stroke="rgb(0, 0, 0)" stroke-miterlimit="10" pointer-events="none"/><path d="M 350 60 L 350 100 L 600.01 100 L 600.01 60" fill="none" stroke="rgb(0, 0, 0)" stroke-miterlimit="10" pointer-events="none"/><path d="M 350 60 L 600.01 60" fill="none" stroke="rgb(0, 0, 0)" stroke-miterlimit="10" pointer-events="none"/><path d="M 390 60 L 390 90" fill="none" stroke="rgb(0, 0, 0)" stroke-miterlimit="10" pointer-events="none"/><g fill="rgb(0, 0, 0)" font-family="Helvetica" font-weight="bold" pointer-events="none" text-anchor="middle" font-size="12.00012px"><text x="474.5" y="49.5">FIXME</text></g><path d="M 350 60 M 600.01 60 M 600.01 90 L 350 90" fill="none" stroke="rgb(0, 0, 0)" stroke-linecap="square" stroke-miterlimit="10" pointer-events="none"/><path d="M 350 60 M 390 60 M 390 90 M 350 90" fill="none" stroke="rgb(0, 0, 0)" stroke-linecap="square" stroke-miterlimit="10" pointer-events="none"/><g fill="rgb(0, 0, 0)" font-family="Helvetica" font-weight="bold" pointer-events="none" clip-path="url(#mx-clip-350-60-40-30-0)" text-anchor="middle" font-size="12.00012px"><text x="369.5" y="79.5">PK,FK</text></g><path d="M 390 60 M 600.01 60 M 600.01 90 M 390 90" fill="none" stroke="rgb(0, 0, 0)" stroke-linecap="square" stroke-miterlimit="10" pointer-events="none"/><g fill="rgb(0, 0, 0)" font-family="Helvetica" font-weight="bold" text-decoration="underline" pointer-events="none" clip-path="url(#mx-clip-396-60-204-30-0)" font-size="12.00012px"><text x="397.5" y="79.5">FIXME...</text></g><path d="M 0 710.01 L 0 680.01 L 250 680.01 L 250 710.01" fill="rgb(255, 255, 255)" stroke="rgb(0, 0, 0)" stroke-miterlimit="10" pointer-events="none"/><path d="M 0 710.01 L 0 870.01 L 250 870.01 L 250 710.01" fill="none" stroke="rgb(0, 0, 0)" stroke-miterlimit="10" pointer-events="none"/><path d="M 0 710.01 L 250 710.01" fill="none" stroke="rgb(0, 0, 0)" stroke-miterlimit="10" pointer-events="none"/><path d="M 30 710.01 L 30 740.01 L 30 770.01 L 30 800.01 L 30 830.01 L 30 860.01" fill="none" stroke="rgb(0, 0, 0)" stroke-miterlimit="10" pointer-events="none"/><g fill="rgb(0, 0, 0)" font-family="Helvetica" font-weight="bold" pointer-events="none" text-anchor="middle" font-size="12.00012px"><text x="124.5" y="699.51">Event</text></g><path d="M 0 710.01 M 250 710.01 M 250 740.01 L 0 740.01" fill="none" stroke="rgb(0, 0, 0)" stroke-linecap="square" stroke-miterlimit="10" pointer-events="none"/><path d="M 0 710.01 M 30 710.01 M 30 740.01 M 0 740.01" fill="none" stroke="rgb(0, 0, 0)" stroke-linecap="square" stroke-miterlimit="10" pointer-events="none"/><g fill="rgb(0, 0, 0)" font-family="Helvetica" font-weight="bold" pointer-events="none" clip-path="url(#mx-clip-0-710-30-30-0)" text-anchor="middle" font-size="12.00012px"><text x="14.5" y="729.51">PK</text></g><path d="M 30 710.01 M 250 710.01 M 250 740.01 M 30 740.01" fill="none" stroke="rgb(0, 0, 0)" stroke-linecap="square" stroke-miterlimit="10" pointer-events="none"/><g fill="rgb(0, 0, 0)" font-family="Helvetica" font-weight="bold" text-decoration="underline" pointer-events="none" clip-path="url(#mx-clip-36-710-214-30-0)" font-size="12.00012px"><text x="37.5" y="729.51">ID INTEGER NOT NULL</text></g><path d="M 0 740.01 M 250 740.01 M 250 770.01 M 0 770.01" fill="none" stroke="rgb(0, 0, 0)" stroke-linecap="square" stroke-miterlimit="10" pointer-events="none"/><path d="M 0 740.01 M 30 740.01 M 30 770.01 M 0 770.01" fill="none" stroke="rgb(0, 0, 0)" stroke-linecap="square" stroke-miterlimit="10" pointer-events="none"/><g fill="rgb(0, 0, 0)" font-family="Helvetica" pointer-events="none" clip-path="url(#mx-clip-0-740-30-30-0)" text-anchor="middle" font-size="12.00012px"><text x="14.5" y="759.51">FK</text></g><path d="M 30 740.01 M 250 740.01 M 250 770.01 M 30 770.01" fill="none" stroke="rgb(0, 0, 0)" stroke-linecap="square" stroke-miterlimit="10" pointer-events="none"/><g fill="rgb(0, 0, 0)" font-family="Helvetica" pointer-events="none" clip-path="url(#mx-clip-36-740-214-30-0)" font-size="12.00012px"><text x="37.5" y="759.51">Submitter INTEGER</text></g><path d="M 0 770.01 M 250 770.01 M 250 800.01 M 0 800.01" fill="none" stroke="rgb(0, 0, 0)" stroke-linecap="square" stroke-miterlimit="10" pointer-events="none"/><path d="M 0 770.01 M 30 770.01 M 30 800.01 M 0 800.01" fill="none" stroke="rgb(0, 0, 0)" stroke-linecap="square" stroke-miterlimit="10" pointer-events="none"/><path d="M 30 770.01 M 250 770.01 M 250 800.01 M 30 800.01" fill="none" stroke="rgb(0, 0, 0)" stroke-linecap="square" stroke-miterlimit="10" pointer-events="none"/><g fill="rgb(0, 0, 0)" font-family="Helvetica" pointer-events="none" clip-path="url(#mx-clip-36-770-214-30-0)" font-size="12.00012px"><text x="37.5" y="789.51">Description VARCHAR</text></g><path d="M 0 800.01 M 30 800.01 M 30 830.01 M 0 830.01" fill="none" stroke="rgb(0, 0, 0)" stroke-linecap="square" stroke-miterlimit="10" pointer-events="none"/><path d="M 30 800.01 M 250 800.01 M 250 830.01 M 30 830.01" fill="none" stroke="rgb(0, 0, 0)" stroke-linecap="square" stroke-miterlimit="10" pointer-events="none"/><g fill="rgb(0, 0, 0)" font-family="Helvetica" pointer-events="none" clip-path="url(#mx-clip-36-800-214-30-0)" font-size="12.00012px"><text x="37.5" y="819.51">EventDate DATE</text></g><path d="M 0 830.01 M 30 830.01 M 30 860.01 M 0 860.01" fill="none" stroke="rgb(0, 0, 0)" stroke-linecap="square" stroke-miterlimit="10" pointer-events="none"/><path d="M 30 830.01 M 250 830.01 M 250 860.01 M 30 860.01" fill="none" stroke="rgb(0, 0, 0)" stroke-linecap="square" stroke-miterlimit="10" pointer-events="none"/><g fill="rgb(0, 0, 0)" font-family="Helvetica" pointer-events="none" clip-path="url(#mx-clip-36-830-214-30-0)" font-size="12.00012px"><text x="37.5" y="849.51">Approved BOOLEAN</text></g><path d="M 0 420 L 0 390 L 250 390 L 250 420" fill="rgb(255, 255, 255)" stroke="rgb(0, 0, 0)" stroke-miterlimit="10" pointer-events="none"/><path d="M 0 420 L 0 640.01 L 250 640.01 L 250 420" fill="none" stroke="rgb(0, 0, 0)" stroke-miterlimit="10" pointer-events="none"/><path d="M 0 420 L 250 420" fill="none" stroke="rgb(0, 0, 0)" stroke-miterlimit="10" pointer-events="none"/><path d="M 30 420 L 30 450 L 30 480 L 30 510.01 L 30 540.01 L 30 570.01 L 30 600.01 L 30 630.01" fill="none" stroke="rgb(0, 0, 0)" stroke-miterlimit="10" pointer-events="none"/><g fill="rgb(0, 0, 0)" font-family="Helvetica" font-weight="bold" pointer-events="none" text-anchor="middle" font-size="12.00012px"><text x="124.5" y="409.5">Resource</text></g><path d="M 0 420 M 250 420 M 250 450 L 0 450" fill="none" stroke="rgb(0, 0, 0)" stroke-linecap="square" stroke-miterlimit="10" pointer-events="none"/><path d="M 0 420 M 30 420 M 30 450 M 0 450" fill="none" stroke="rgb(0, 0, 0)" stroke-linecap="square" stroke-miterlimit="10" pointer-events="none"/><g fill="rgb(0, 0, 0)" font-family="Helvetica" font-weight="bold" pointer-events="none" clip-path="url(#mx-clip-0-420-30-30-0)" text-anchor="middle" font-size="12.00012px"><text x="14.5" y="439.5">PK</text></g><path d="M 30 420 M 250 420 M 250 450 M 30 450" fill="none" stroke="rgb(0, 0, 0)" stroke-linecap="square" stroke-miterlimit="10" pointer-events="none"/><g fill="rgb(0, 0, 0)" font-family="Helvetica" font-weight="bold" text-decoration="underline" pointer-events="none" clip-path="url(#mx-clip-36-420-214-30-0)" font-size="12.00012px"><text x="37.5" y="439.5">ID INTEGER NOT NULL</text></g><path d="M 0 450 M 250 450 M 250 480 M 0 480" fill="none" stroke="rgb(0, 0, 0)" stroke-linecap="square" stroke-miterlimit="10" pointer-events="none"/><path d="M 0 450 M 30 450 M 30 480 M 0 480" fill="none" stroke="rgb(0, 0, 0)" stroke-linecap="square" stroke-miterlimit="10" pointer-events="none"/><path d="M 30 450 M 250 450 M 250 480 M 30 480" fill="none" stroke="rgb(0, 0, 0)" stroke-linecap="square" stroke-miterlimit="10" pointer-events="none"/><g fill="rgb(0, 0, 0)" font-family="Helvetica" pointer-events="none" clip-path="url(#mx-clip-36-450-214-30-0)" font-size="12.00012px"><text x="37.5" y="469.5">Name VARCHAR</text></g><path d="M 0 480 M 30 480 M 30 510.01 M 0 510.01" fill="none" stroke="rgb(0, 0, 0)" stroke-linecap="square" stroke-miterlimit="10" pointer-events="none"/><path d="M 30 480 M 250 480 M 250 510.01 M 30 510.01" fill="none" stroke="rgb(0, 0, 0)" stroke-linecap="square" stroke-miterlimit="10" pointer-events="none"/><g fill="rgb(0, 0, 0)" font-family="Helvetica" pointer-events="none" clip-path="url(#mx-clip-36-480-214-30-0)" font-size="12.00012px"><text x="37.5" y="499.51">URL VARCHAR</text></g><path d="M 0 510.01 M 30 510.01 M 30 540.01 M 0 540.01" fill="none" stroke="rgb(0, 0, 0)" stroke-linecap="square" stroke-miterlimit="10" pointer-events="none"/><path d="M 30 510.01 M 250 510.01 M 250 540.01 M 30 540.01" fill="none" stroke="rgb(0, 0, 0)" stroke-linecap="square" stroke-miterlimit="10" pointer-events="none"/><g fill="rgb(0, 0, 0)" font-family="Helvetica" pointer-events="none" clip-path="url(#mx-clip-36-510-214-30-0)" font-size="12.00012px"><text x="37.5" y="529.51">Description VARCHAR</text></g><path d="M 0 540.01 M 30 540.01 M 30 570.01 M 0 570.01" fill="none" stroke="rgb(0, 0, 0)" stroke-linecap="square" stroke-miterlimit="10" pointer-events="none"/><g fill="rgb(0, 0, 0)" font-family="Helvetica" pointer-events="none" clip-path="url(#mx-clip-0-540-30-30-0)" text-anchor="middle" font-size="12.00012px"><text x="14.5" y="559.51">FK</text></g><path d="M 30 540.01 M 250 540.01 M 250 570.01 M 30 570.01" fill="none" stroke="rgb(0, 0, 0)" stroke-linecap="square" stroke-miterlimit="10" pointer-events="none"/><g fill="rgb(0, 0, 0)" font-family="Helvetica" pointer-events="none" clip-path="url(#mx-clip-36-540-214-30-0)" font-size="12.00012px"><text x="37.5" y="559.51">Submitter INTEGER</text></g><path d="M 0 570.01 M 30 570.01 M 30 600.01 M 0 600.01" fill="none" stroke="rgb(0, 0, 0)" stroke-linecap="square" stroke-miterlimit="10" pointer-events="none"/><path d="M 30 570.01 M 250 570.01 M 250 600.01 M 30 600.01" fill="none" stroke="rgb(0, 0, 0)" stroke-linecap="square" stroke-miterlimit="10" pointer-events="none"/><g fill="rgb(0, 0, 0)" font-family="Helvetica" pointer-events="none" clip-path="url(#mx-clip-36-570-214-30-0)" font-size="12.00012px"><text x="37.5" y="589.51">SubmitDate DATE</text></g><path d="M 0 600.01 M 30 600.01 M 30 630.01 M 0 630.01" fill="none" stroke="rgb(0, 0, 0)" stroke-linecap="square" stroke-miterlimit="10" pointer-events="none"/><path d="M 30 600.01 M 250 600.01 M 250 630.01 M 30 630.01" fill="none" stroke="rgb(0, 0, 0)" stroke-linecap="square" stroke-miterlimit="10" pointer-events="none"/><g fill="rgb(0, 0, 0)" font-family="Helvetica" pointer-events="none" clip-path="url(#mx-clip-36-600-214-30-0)" font-size="12.00012px"><text x="37.5" y="619.51">Approved BOOLEAN</text></g><path d="M 350 385 L 330 385 Q 320 385 317.71 394.74 L 282.29 545.27 Q 280 555.01 270 555.01 L 250 555.01" fill="none" stroke="rgb(0, 0, 0)" stroke-miterlimit="10" pointer-events="none"/><path d="M 346 389 L 346 381" fill="none" stroke="rgb(0, 0, 0)" stroke-miterlimit="10" pointer-events="none"/><ellipse cx="262" cy="555.01" rx="3.00003" ry="3.00003" fill="#ffffff" stroke="rgb(0, 0, 0)" pointer-events="none"/><path d="M 250 559.01 L 258 555.01 L 250 551.01" fill="none" stroke="rgb(0, 0, 0)" stroke-miterlimit="10" pointer-events="none"/><path d="M 600.01 385 L 620.01 385 Q 630.01 385 630.84 375.04 L 649.18 154.97 Q 650.01 145 660.01 145 L 680.01 145" fill="none" stroke="rgb(0, 0, 0)" stroke-miterlimit="10" pointer-events="none"/><path d="M 604.01 381 L 604.01 389" fill="none" stroke="rgb(0, 0, 0)" stroke-miterlimit="10" pointer-events="none"/><ellipse cx="668.01" cy="145" rx="3.00003" ry="3.00003" fill="#ffffff" stroke="rgb(0, 0, 0)" pointer-events="none"/><path d="M 680.01 141 L 672.01 145 L 680.01 149" fill="none" stroke="rgb(0, 0, 0)" stroke-miterlimit="10" pointer-events="none"/><path d="M 350 385 L 330 385 Q 320 385 318.93 394.95 L 281.08 745.07 Q 280 755.01 270 755.01 L 250 755.01" fill="none" stroke="rgb(0, 0, 0)" stroke-miterlimit="10" pointer-events="none"/><path d="M 346 389 L 346 381" fill="none" stroke="rgb(0, 0, 0)" stroke-miterlimit="10" pointer-events="none"/><ellipse cx="262" cy="755.01" rx="3.00003" ry="3.00003" fill="#ffffff" stroke="rgb(0, 0, 0)" pointer-events="none"/><path d="M 250 759.01 L 258 755.01 L 250 751.01" fill="none" stroke="rgb(0, 0, 0)" stroke-miterlimit="10" pointer-events="none"/></g></svg>